# xmcd CD database file
#
# Track frame offsets:
#	150
#	27104
#	56206
#	83922
#	108786
#
# Disc length: 1737 seconds
#
# Revision: 0
# Processed by: cddbd v1.5.2PL0 Copyright (c) Steve Scherf et al.
# Submitted via: CDex 1.79
#
DISCID=3506c705
DTITLE=Cobody - cobody plays lauth
DYEAR=2013
DGENRE=Jazz
TTITLE0=Telefunky
TTITLE1=Waltz For People Who Hate Waltzes
TTITLE2=Lauther
TTITLE3=Blue Paintings
TTITLE4=Donald
EXTD=YEAR: 2013
EXTT0=
EXTT1=
EXTT2=
EXTT3=
EXTT4=
PLAYORDER=
